<svg width="131" height="54" viewBox="0 0 131 54" fill="none" xmlns="http://www.w3.org/2000/svg">
<path d="M13.1426 42.4688V51H12.0293V42.4688H13.1426ZM15.8848 42.4688V43.3945H9.29297V42.4688H15.8848ZM17.1504 42.4688H19.9746C20.6152 42.4688 21.1562 42.5664 21.5977 42.7617C22.043 42.957 22.3809 43.2461 22.6113 43.6289C22.8457 44.0078 22.9629 44.4746 22.9629 45.0293C22.9629 45.4199 22.8828 45.7773 22.7227 46.1016C22.5664 46.4219 22.3398 46.6953 22.043 46.9219C21.75 47.1445 21.3984 47.3105 20.9883 47.4199L20.6719 47.543H18.0176L18.0059 46.623H20.0098C20.416 46.623 20.7539 46.5527 21.0234 46.4121C21.293 46.2676 21.4961 46.0742 21.6328 45.832C21.7695 45.5898 21.8379 45.3223 21.8379 45.0293C21.8379 44.7012 21.7734 44.4141 21.6445 44.168C21.5156 43.9219 21.3125 43.7324 21.0352 43.5996C20.7617 43.4629 20.4082 43.3945 19.9746 43.3945H18.2812V51H17.1504V42.4688ZM22.1367 51L20.0625 47.1328L21.2402 47.127L23.3438 50.9297V51H22.1367ZM27.7031 43.2246L24.8789 51H23.7246L26.9766 42.4688H27.7207L27.7031 43.2246ZM30.0703 51L27.2402 43.2246L27.2227 42.4688H27.9668L31.2305 51H30.0703ZM29.9238 47.8418V48.7676H25.1309V47.8418H29.9238ZM34.6816 51H32.9004L32.9121 50.0801H34.6816C35.291 50.0801 35.7988 49.9531 36.2051 49.6992C36.6113 49.4414 36.916 49.082 37.1191 48.6211C37.3262 48.1562 37.4297 47.6133 37.4297 46.9922V46.4707C37.4297 45.9824 37.3711 45.5488 37.2539 45.1699C37.1367 44.7871 36.9648 44.4648 36.7383 44.2031C36.5117 43.9375 36.2344 43.7363 35.9062 43.5996C35.582 43.4629 35.209 43.3945 34.7871 43.3945H32.8652V42.4688H34.7871C35.3457 42.4688 35.8555 42.5625 36.3164 42.75C36.7773 42.9336 37.1738 43.2012 37.5059 43.5527C37.8418 43.9004 38.0996 44.3223 38.2793 44.8184C38.459 45.3105 38.5488 45.8652 38.5488 46.4824V46.9922C38.5488 47.6094 38.459 48.166 38.2793 48.6621C38.0996 49.1543 37.8398 49.5742 37.5 49.9219C37.1641 50.2695 36.7578 50.5371 36.2812 50.7246C35.8086 50.9082 35.2754 51 34.6816 51ZM33.5039 42.4688V51H32.373V42.4688H33.5039ZM45.668 50.0801V51H41.1504V50.0801H45.668ZM41.3789 42.4688V51H40.248V42.4688H41.3789ZM45.0703 46.1367V47.0566H41.1504V46.1367H45.0703ZM45.6094 42.4688V43.3945H41.1504V42.4688H45.6094ZM53.2031 43.2246L50.3789 51H49.2246L52.4766 42.4688H53.2207L53.2031 43.2246ZM55.5703 51L52.7402 43.2246L52.7227 42.4688H53.4668L56.7305 51H55.5703ZM55.4238 47.8418V48.7676H50.6309V47.8418H55.4238ZM64.4355 42.4688V51H63.2988L59.0039 44.4199V51H57.873V42.4688H59.0039L63.3164 49.0664V42.4688H64.4355ZM68.748 51H66.9668L66.9785 50.0801H68.748C69.3574 50.0801 69.8652 49.9531 70.2715 49.6992C70.6777 49.4414 70.9824 49.082 71.1855 48.6211C71.3926 48.1562 71.4961 47.6133 71.4961 46.9922V46.4707C71.4961 45.9824 71.4375 45.5488 71.3203 45.1699C71.2031 44.7871 71.0312 44.4648 70.8047 44.2031C70.5781 43.9375 70.3008 43.7363 69.9727 43.5996C69.6484 43.4629 69.2754 43.3945 68.8535 43.3945H66.9316V42.4688H68.8535C69.4121 42.4688 69.9219 42.5625 70.3828 42.75C70.8438 42.9336 71.2402 43.2012 71.5723 43.5527C71.9082 43.9004 72.166 44.3223 72.3457 44.8184C72.5254 45.3105 72.6152 45.8652 72.6152 46.4824V46.9922C72.6152 47.6094 72.5254 48.166 72.3457 48.6621C72.166 49.1543 71.9062 49.5742 71.5664 49.9219C71.2305 50.2695 70.8242 50.5371 70.3477 50.7246C69.875 50.9082 69.3418 51 68.748 51ZM67.5703 42.4688V51H66.4395V42.4688H67.5703ZM82.7109 50.0801V51H78.1934V50.0801H82.7109ZM78.4219 42.4688V51H77.291V42.4688H78.4219ZM82.1133 46.1367V47.0566H78.1934V46.1367H82.1133ZM82.6523 42.4688V43.3945H78.1934V42.4688H82.6523ZM84.8438 42.4688L86.8945 45.7383L88.9453 42.4688H90.2637L87.5684 46.6934L90.3281 51H88.998L86.8945 47.666L84.791 51H83.4609L86.2207 46.6934L83.5254 42.4688H84.8438ZM94.7812 47.6543H92.502V46.7344H94.7812C95.2227 46.7344 95.5801 46.6641 95.8535 46.5234C96.127 46.3828 96.3262 46.1875 96.4512 45.9375C96.5801 45.6875 96.6445 45.4023 96.6445 45.082C96.6445 44.7891 96.5801 44.5137 96.4512 44.2559C96.3262 43.998 96.127 43.791 95.8535 43.6348C95.5801 43.4746 95.2227 43.3945 94.7812 43.3945H92.7656V51H91.6348V42.4688H94.7812C95.4258 42.4688 95.9707 42.5801 96.416 42.8027C96.8613 43.0254 97.1992 43.334 97.4297 43.7285C97.6602 44.1191 97.7754 44.5664 97.7754 45.0703C97.7754 45.6172 97.6602 46.084 97.4297 46.4707C97.1992 46.8574 96.8613 47.1523 96.416 47.3555C95.9707 47.5547 95.4258 47.6543 94.7812 47.6543ZM105.773 46.4648V47.0039C105.773 47.6445 105.693 48.2188 105.533 48.7266C105.373 49.2344 105.143 49.666 104.842 50.0215C104.541 50.377 104.18 50.6484 103.758 50.8359C103.34 51.0234 102.871 51.1172 102.352 51.1172C101.848 51.1172 101.385 51.0234 100.963 50.8359C100.545 50.6484 100.182 50.377 99.873 50.0215C99.5684 49.666 99.332 49.2344 99.1641 48.7266C98.9961 48.2188 98.9121 47.6445 98.9121 47.0039V46.4648C98.9121 45.8242 98.9941 45.252 99.1582 44.748C99.3262 44.2402 99.5625 43.8086 99.8672 43.4531C100.172 43.0938 100.533 42.8203 100.951 42.6328C101.373 42.4453 101.836 42.3516 102.34 42.3516C102.859 42.3516 103.328 42.4453 103.746 42.6328C104.168 42.8203 104.529 43.0938 104.83 43.4531C105.135 43.8086 105.367 44.2402 105.527 44.748C105.691 45.252 105.773 45.8242 105.773 46.4648ZM104.654 47.0039V46.4531C104.654 45.9453 104.602 45.4961 104.496 45.1055C104.395 44.7148 104.244 44.3867 104.045 44.1211C103.846 43.8555 103.602 43.6543 103.312 43.5176C103.027 43.3809 102.703 43.3125 102.34 43.3125C101.988 43.3125 101.67 43.3809 101.385 43.5176C101.104 43.6543 100.861 43.8555 100.658 44.1211C100.459 44.3867 100.305 44.7148 100.195 45.1055C100.086 45.4961 100.031 45.9453 100.031 46.4531V47.0039C100.031 47.5156 100.086 47.9688 100.195 48.3633C100.305 48.7539 100.461 49.084 100.664 49.3535C100.871 49.6191 101.115 49.8203 101.396 49.957C101.682 50.0938 102 50.1621 102.352 50.1621C102.719 50.1621 103.045 50.0938 103.33 49.957C103.615 49.8203 103.855 49.6191 104.051 49.3535C104.25 49.084 104.4 48.7539 104.502 48.3633C104.604 47.9688 104.654 47.5156 104.654 47.0039ZM107.467 42.4688H110.291C110.932 42.4688 111.473 42.5664 111.914 42.7617C112.359 42.957 112.697 43.2461 112.928 43.6289C113.162 44.0078 113.279 44.4746 113.279 45.0293C113.279 45.4199 113.199 45.7773 113.039 46.1016C112.883 46.4219 112.656 46.6953 112.359 46.9219C112.066 47.1445 111.715 47.3105 111.305 47.4199L110.988 47.543H108.334L108.322 46.623H110.326C110.732 46.623 111.07 46.5527 111.34 46.4121C111.609 46.2676 111.812 46.0742 111.949 45.832C112.086 45.5898 112.154 45.3223 112.154 45.0293C112.154 44.7012 112.09 44.4141 111.961 44.168C111.832 43.9219 111.629 43.7324 111.352 43.5996C111.078 43.4629 110.725 43.3945 110.291 43.3945H108.598V51H107.467V42.4688ZM112.453 51L110.379 47.1328L111.557 47.127L113.66 50.9297V51H112.453ZM117.545 42.4688V51H116.432V42.4688H117.545ZM120.287 42.4688V43.3945H113.695V42.4688H120.287Z" fill="white"/>
<path d="M12.355 19.045H1.61V14.53H19.355V18.555L8.645 32.135V32.205H19.915V36.72H1.05V33.045L12.355 19.115V19.045ZM43.2471 14.565L36.3521 36.685H28.6521L22.1071 14.565H28.3721C28.7455 15.7317 29.1421 17.0617 29.5621 18.555C29.9821 20.0483 30.3905 21.5767 30.7871 23.14C31.2071 24.68 31.5688 26.1267 31.8721 27.48C32.1988 28.81 32.4438 29.9183 32.6071 30.805H32.7471C32.9105 29.9183 33.1438 28.81 33.4471 27.48C33.7738 26.1267 34.1355 24.68 34.5321 23.14C34.9521 21.6 35.3721 20.0833 35.7921 18.59C36.2121 17.0967 36.6088 15.755 36.9821 14.565H43.2471ZM46.4652 36.685V14.53H62.9152V19.08H52.0652V23.28H61.4802V27.83H52.0652V32.135H62.9152V36.685H46.4652ZM75.9634 19.045H65.2184V14.53H82.9634V18.555L72.2534 32.135V32.205H83.5234V36.72H64.6584V33.045L75.9634 19.115V19.045ZM86.6605 36.685V14.53H96.3555C98.2922 14.53 99.9139 14.6933 101.221 15.02C102.527 15.3233 103.577 15.8717 104.371 16.665C105.164 17.4583 105.736 18.5667 106.086 19.99C106.436 21.39 106.611 23.1983 106.611 25.415C106.611 27.725 106.436 29.615 106.086 31.085C105.736 32.555 105.164 33.6983 104.371 34.515C103.577 35.3317 102.527 35.9033 101.221 36.23C99.9139 36.5333 98.2922 36.685 96.3555 36.685H86.6605ZM95.5505 19.255H92.2605V31.96H95.5505C96.9039 31.96 97.9655 31.8083 98.7355 31.505C99.5289 31.2017 100.089 30.5833 100.416 29.65C100.766 28.7167 100.941 27.305 100.941 25.415C100.941 23.6183 100.766 22.2883 100.416 21.425C100.089 20.5383 99.5289 19.955 98.7355 19.675C97.9655 19.395 96.9039 19.255 95.5505 19.255ZM130.408 36.58V36.685H124.458C124.294 36.125 124.096 35.4833 123.863 34.76C123.653 34.0367 123.419 33.2667 123.163 32.45H115.603C115.136 34.0833 114.704 35.495 114.308 36.685H108.358V36.615L115.533 14.53H123.233L130.408 36.58ZM119.313 18.52C119.079 19.71 118.741 21.1567 118.298 22.86C117.854 24.5633 117.388 26.3017 116.898 28.075H121.903C121.389 26.3017 120.911 24.5633 120.468 22.86C120.024 21.1567 119.686 19.71 119.453 18.52H119.313Z" fill="white"/>
</svg>
